<svg xmlns="http://www.w3.org/2000/svg" viewBox="0 0 1080 1080"><defs><style>.cls-1{fill:#015ff3;}.cls-2{fill:#101010;}</style></defs><g id="Layer_1" data-name="Layer 1"><path class="cls-1" d="M627.27,396.65h-97l-97,97v97l19.4,19.4H627.27l19.4-19.4V416.05ZM588.48,551.8h-97V513l58.18-58.18h38.78Z"/><polygon class="cls-2" points="255 643.35 255 678.34 250 683.35 240 683.35 240 643.35 220 643.35 220 628.35 240 628.35 255 643.35"/><polygon class="cls-2" points="275 628.35 275 643.35 262.07 643.35 247.07 628.35 275 628.35"/><polygon class="cls-2" points="600 668.35 600 683.35 555 683.35 545 673.35 545 628.35 555 628.35 559.9 633.25 559.79 633.35 560 633.35 560 668.35 600 668.35"/><polygon class="cls-2" points="305 663.35 300 668.35 340 668.35 340 683.35 285 683.35 285 663.35 300 648.35 340 648.35 340 663.35 305 663.35"/><polygon class="cls-2" points="340 628.35 340 633.35 330 643.35 295 643.35 290 648.35 285 648.35 285 633.35 290 628.35 340 628.35"/><polygon class="cls-2" points="825 663.35 820 668.35 860 668.35 860 683.35 805 683.35 805 663.35 820 648.35 860 648.35 860 663.35 825 663.35"/><polygon class="cls-2" points="860 628.35 860 633.35 850 643.35 815 643.35 810 648.35 805 648.35 805 633.35 810 628.35 860 628.35"/><path class="cls-2" d="M760,648.35l-5-5h40v-15H740v20l15,15h40v-10l-5-5Z"/><polygon class="cls-2" points="795 683.35 745 683.35 740 678.35 740 663.35 745 663.35 750 668.35 795 668.35 795 683.35"/><polygon class="cls-2" points="365 668.35 405 668.35 405 683.35 350 683.35 350 653.35 375 628.35 405 628.35 405 643.35 380 643.35 365 658.35 365 668.35"/><polygon class="cls-2" points="470 658.35 470 683.35 455 683.35 455 668.35 430 668.35 430 683.35 415 683.35 415 628.35 430 628.35 430 653.35 465 653.35 470 658.35"/><path class="cls-2" d="M530,628.35H505l-25,25v25l5,5h45l5-5v-45Zm-10,40H495v-10l15-15h10Z"/><polygon class="cls-2" points="665 628.35 665 673.35 655 683.35 615 683.35 610 678.35 610 668.35 625 668.35 610 653.35 610 633.35 615 628.35 625 628.35 625 648.35 645 668.35 645 628.35 665 628.35"/><path class="cls-2" d="M725,628.35H675v55h15v-15h25l15-15v-20Zm-10,20-5,5H690v-10h25Z"/><polygon class="cls-2" points="465 648.35 470 648.35 470 643.35 470 628.35 455 628.35 455 638.35 460 643.35 465 648.35"/></g></svg>